<svg width="1351" height="123" viewBox="0 0 1351 123" fill="" xmlns="http://www.w3.org/2000/svg">
<path d="M4.32817 104.687C8.4083 97.3545 14.3558 88.2597 18.9406 81.4713C20.2048 79.5969 20.1087 80.3963 20.7515 79.6198C20.8492 79.4965 20.9631 79.3415 21.1 79.1446C23.3859 75.8603 25.6739 72.7215 28.7767 70.0956C29.807 69.2418 29.0362 70.8508 30.1007 69.9646C35.9725 65.1676 42.1537 61.9404 48.7203 59.5376C53.6516 57.7533 58.5582 56.3614 63.4134 55.0769C84.6156 49.9271 105.182 50.7979 125.801 51.512C133.393 51.7872 141.057 53.29 148.214 55.2712C152.586 56.4616 157.196 57.9595 161.891 59.5027C168.747 61.7596 175.753 64.1964 182.15 66.1751C183.415 66.5663 182.855 65.7563 183.108 65.7902C187.075 66.3438 185.456 67.054 187.831 68.0314C197.273 71.9199 207.902 75.7992 217.154 79.0647C221.091 80.4568 217.598 77.8699 221.29 79.9879C221.547 80.1341 220.334 80.3383 221.378 80.8119C221.87 81.0344 222.457 81.2825 223.094 81.5429C225.544 82.5429 228.753 83.7461 230.222 84.3767C233.781 85.9091 234.38 86.1465 237.767 87.5402C242.398 89.4549 247.76 92.0439 252.754 94.0195C253.82 94.4388 252.676 93.2529 254.399 93.8697C256.126 94.4871 260.542 96.4413 261.978 97.2228C263.408 98.0013 262.576 98.1931 262.795 98.4131C264.591 100.249 270.244 101.188 270.913 101.428C271.895 101.792 272.894 102.168 273.846 102.529C284.363 106.471 294.241 108.851 305.316 110.117C312.89 110.958 321.008 111.311 328.607 111.725C330.145 111.809 331.639 111.864 333.087 111.879C343.015 112.022 351.452 109.68 361.017 106.301C362.03 105.935 360.599 105.645 361.818 105.2C362.214 105.055 362.615 104.907 363.023 104.756C375.598 100.04 388.06 94.7491 400.615 89.6931C401.918 89.1658 400.537 90.5109 401.855 90.0201C408.989 87.3613 419.931 83.462 424.59 79.2057C425.197 78.6586 425.683 78.1154 426.044 77.5728C431.286 75.1241 437.472 71.9684 442.211 69.8805C445.27 68.526 442.856 70.7922 446.214 68.4325C446.969 67.8966 445.616 67.9764 446.768 67.214C451.2 64.2889 456.115 61.2065 460.773 58.2191C461.194 57.9481 461.605 57.676 462.014 57.3985C462.972 56.7427 462.406 56.4206 462.634 56.1636C464.546 54.0446 469.169 52.6772 470.084 52.1982C476.994 48.5915 481.636 45.1182 488.259 41.6777C489.804 40.8915 487.627 41.1464 489.115 40.3675C490.21 39.8023 491.326 39.2568 492.463 38.7361C499.008 35.7416 505.686 32.5714 512.291 29.8735C514.007 29.1784 512.727 30.471 513.559 30.1711C517.229 28.8577 517.531 27.3822 521.144 26.2062C521.905 25.9625 521.691 26.6446 521.848 26.6477C524.293 26.7092 525.692 24.786 526.25 24.5646C530.504 22.852 534.174 22.366 537.972 22.1357C540.319 22.0069 542.716 21.8884 545.46 21.5768C546.307 21.4822 544.329 20.9354 546.722 20.7182C562.699 19.2979 579.694 21.3587 594.827 25.4601C597.181 26.0995 595.365 26.2158 595.5 26.3139C597.686 27.8733 599.565 26.9589 600.353 27.1104C601.451 27.329 602.525 27.6005 603.567 27.8966C608.472 29.2971 612.529 31.4658 616.29 31.5859C627.283 36.4869 637.729 42.078 648.089 47.7358C660.762 54.7071 673.023 62.2262 684.889 70.2759C685.163 70.4605 684.311 70.7306 684.86 71.0959C691.489 75.5051 690.711 73.8285 695.877 75.4004C696.516 75.5935 697.499 76.5098 698.347 77.4076C699.252 78.3512 700.003 79.2712 700.129 79.4094C701.047 80.4136 699.379 80.6078 699.719 80.8952C702.552 83.2332 703.649 80.0791 707.867 82.4057C707.995 82.4823 707.154 82.7134 707.476 82.9588C708.505 83.7387 709.689 84.1057 710.696 84.8806C712.946 86.6213 713.118 88.5388 717.393 89.6386C717.932 89.7642 718.027 87.7552 721.84 89.6871C723.35 90.4883 730.259 93.5252 732.187 94.3857C734.098 95.2808 732.533 95.3039 732.661 95.3835C737.703 98.1987 735.567 97.7122 737.885 99.8135C740.239 101.884 740.391 98.9594 741.597 99.0377C742.799 99.1236 746.604 101.007 747.542 101.513C748.467 102.026 747.121 102.027 747.968 102.412C753.628 104.924 750.925 101.813 752.984 101.93C755.06 102.031 756.798 102.62 758.455 103.366C760.605 104.342 762.655 105.553 765.059 106.176C766.206 106.47 765.357 105.811 766.387 105.977C770.478 106.624 772.817 107.704 777.576 107.892C778.351 107.925 782.307 107.291 784.611 108.559C784.937 108.741 783.877 109.108 785.61 109.482C788.2 110.044 792.909 110.814 795.751 111.011C797.851 111.158 795.577 109.999 798.16 110.604C799.311 110.872 797.087 111.089 799.252 111.55C801.404 112.012 806.984 112.675 809.111 112.906C811.223 113.139 810.148 112.359 810.321 112.336C810.872 112.271 812.22 112.284 813.44 112.314C814.615 112.344 815.662 112.385 815.84 112.404C828.29 113.783 840.006 114.58 851.965 113.644C857.326 113.277 862.707 112.714 868.129 111.864C869.502 111.648 868.491 111.097 868.699 111.057C873.355 110.103 869.908 112.439 873.295 112.546C872.609 111.246 874.591 111.214 877.865 110.497C879.442 110.146 878.482 109.769 878.618 109.689C880.818 108.473 882.636 109.184 883.099 109.313C884.809 109.783 886.304 108.508 887.465 108.79C888.633 109.065 886.375 110.381 889.52 109.649C890.28 108.96 887.676 108.244 889.986 107.479C890.834 107.194 891.766 106.898 892.741 106.592C901.804 103.846 915.821 99.62 922.129 97.3412C929.102 94.8376 931.31 93.8899 935.421 92.5395C942.855 90.1091 939.834 90.2085 944.25 88.1242C948.692 86.0536 947.26 89.0894 948.09 89.3308C948.904 89.5802 949.434 88.8367 950.333 88.8164C951.227 88.7986 949.61 89.7328 951.525 89.1724C953.44 88.6033 958.325 86.0033 958.838 85.2841C959.85 83.8456 957.522 83.4314 961.491 82.372C961.755 82.3026 962.046 82.2297 962.366 82.152C962.657 82.0815 961.932 82.9783 963.039 82.6763C971.874 80.3059 980.162 75.3779 987.976 70.4677C989.054 69.7951 988.515 71.0097 989.146 70.6241C995.718 66.5454 992.786 67.164 995.438 63.655C995.574 64.6733 996.309 65.0302 997.688 64.6222C998.92 64.2662 1000.68 63.274 1002.92 61.6096C1005.75 59.5037 1004.8 59.2658 1006.31 57.4675C1006.75 56.9335 1009.05 55.8409 1009.19 55.2845C1009.68 53.4601 1007.03 53.8492 1012.14 50.6088C1012.37 50.4683 1012.08 51.4828 1012.83 50.9601C1017.69 47.5782 1017.51 46.1819 1022.53 42.2027C1026.46 39.0808 1034.07 34.3295 1038.79 31.1007C1039.82 32.7432 1043.95 29.2589 1045 26.918C1046.44 25.9554 1047.95 24.9294 1049.44 23.9467C1051.15 22.8176 1052.88 21.7303 1054.56 20.7959C1055.64 20.1904 1055.25 21.1004 1055.41 21.0687C1057.94 20.6173 1058.65 18.6909 1059.33 18.2352C1066.65 13.4044 1073.51 11.211 1081.11 7.61549C1081.38 7.49287 1081.42 6.03711 1083.87 6.31075C1084.03 6.33692 1081.57 7.72157 1085.35 6.63038C1088.04 5.86633 1092.52 5.11412 1096.77 4.28378C1098.51 3.93853 1100.21 3.56781 1101.74 3.13157C1103 2.76542 1106.15 1.17694 1108.92 1.69071C1109.28 1.76085 1108.95 2.19326 1109.48 2.3423C1111.21 2.81793 1111.95 1.35807 1114.01 2.29927C1116.07 3.24356 1120.12 3.69829 1125.47 2.54482C1125.64 2.51061 1126.86 1.34677 1128.57 1.26854C1131.31 1.1408 1135.2 1.20576 1138.05 1.12771C1139.41 1.08931 1138.52 0.441243 1138.76 0.422995C1143.28 0.131757 1147.16 0.171329 1151.11 0.360383C1155.2 0.565302 1159.37 0.904605 1164.33 1.63095C1166.1 1.85984 1171.45 1.79804 1174.7 3.3497C1178.22 5.07257 1173.66 7.14142 1182.13 8.81715C1185.52 9.54005 1191.21 7.04751 1196.42 11.3509C1201.35 12.9954 1205.98 14.9572 1210.58 16.9941C1216.88 19.7866 1223.12 22.728 1229.88 25.2643C1230.42 25.4683 1232.49 25.1165 1233.69 25.6744C1235.48 26.5123 1236.19 27.4321 1237.46 28.0461C1242.71 30.6071 1247.75 32.4119 1252.83 34.8417C1254.76 35.7637 1253.86 35.9688 1256.14 37.0622C1258.45 38.1663 1260.28 38.2023 1263.28 39.997C1265.5 41.3403 1267.24 43.8255 1270.28 45.4545C1271.05 44.1614 1273.17 45.19 1277.17 46.6424C1277.93 46.9178 1277.37 46.0775 1277.74 46.1836C1279.26 46.6048 1280.39 47.6149 1281.86 47.9885C1282.22 48.0786 1282.45 47.6242 1282.75 47.6721C1285.34 48.0622 1288.59 50.876 1289.14 51.3603C1291.28 53.2199 1292.7 53.1577 1294.46 54.3279C1296.22 55.4966 1293.24 54.49 1295.37 55.7044C1299.75 58.208 1305.64 60.9271 1310.26 63.162C1312.09 64.0477 1311.13 62.8323 1311.4 62.9448C1315.29 64.6142 1318.83 67.1158 1321.53 66.9043C1322.65 71.3359 1323.98 67.7006 1329.12 70.9476C1329.53 71.2052 1329.36 72.9642 1327.6 72.3923C1325.85 71.8212 1323.58 70.1548 1321.13 69.401C1320.55 69.223 1316.77 69.138 1316.31 69.0203C1312.68 68.0992 1313.28 65.6346 1313.16 65.4278C1311.8 63.1481 1307.29 62.8468 1306.24 62.4745C1301.45 60.7711 1297.71 58.602 1293.73 57.1268C1291.12 56.1538 1290.19 57.5124 1288.24 56.5317C1281.79 53.2881 1280.46 50.1505 1273.47 49.0252C1271.97 48.7802 1272.54 51.0114 1268.39 47.5164C1268.13 47.2972 1265.16 44.4887 1262.79 44.2719C1262.49 44.2453 1262.28 44.718 1261.92 44.6009C1259.54 43.7962 1258.23 42.7307 1255.67 41.7584C1253.14 40.7954 1250.05 39.6912 1247.32 38.2354C1245.66 37.3563 1243.9 35.487 1243.18 34.8962C1241.19 33.2351 1238.23 33.1133 1237.18 31.7298C1236.08 30.3199 1239.41 30.4527 1235.86 28.2533C1235.16 29.4156 1234.28 30.5292 1233.5 31.6614C1225.3 27.9085 1217.42 23.9392 1209.11 20.4966C1209.07 20.479 1209.03 20.4615 1208.98 20.444C1207.93 20.0118 1208.72 21.1264 1207.59 20.6851C1202.88 18.8415 1199.01 16.7151 1194.05 15.0493C1190.23 13.7762 1185.82 13.0129 1181.84 11.9673C1179.89 9.7181 1173.84 8.52517 1169.59 7.60538C1168.09 7.27356 1168.28 6.8935 1167.21 6.57975C1163.2 5.47446 1164.92 7.12154 1163.79 7.18205C1158.95 7.57453 1158.78 4.4789 1152.85 4.36788C1152.71 4.36586 1151.94 4.64832 1151.04 4.98595C1149.84 5.43795 1148.45 5.99164 1148.15 6.04887C1144.79 6.70594 1147.59 5.47295 1145.49 5.35339C1141.65 5.15059 1138.96 4.8039 1134.47 5.44754C1133.15 5.63725 1130.06 6.79706 1127.47 6.16351C1127.13 6.08033 1127.29 5.52773 1127.01 5.51254C1122.09 5.30087 1122.08 7.0324 1119.37 7.84086C1116.66 8.65014 1112.29 7.95389 1111.38 7.73022C1109 7.13591 1113.07 7.14687 1113.19 7.05505C1114.52 5.87674 1111.41 6.38915 1109.02 6.6195C1108.46 5.00088 1105.12 5.57316 1106.54 6.87454C1106.7 7.01374 1108.53 6.60436 1109.02 6.6195C1107.13 8.51956 1103.59 9.22399 1099.34 8.45253C1098.21 8.24926 1098.23 7.79127 1097.44 7.68731C1096.83 7.6138 1095.74 7.73207 1093.34 8.41065C1090.81 9.14146 1092.06 10.0238 1089.93 10.8903C1085.09 12.8579 1078.42 14.0406 1073.58 16.4434C1071.83 17.3063 1073.82 17.0904 1072.64 17.703C1069.54 19.3408 1066.57 20.3705 1063.59 22.3458C1063.32 22.526 1064.33 22.7067 1063.38 23.2639C1059.81 25.3654 1056.49 27.3711 1053.13 29.4908C1049.69 31.6572 1046.22 33.9395 1042.54 36.5765C1039.01 39.0871 1033 43.9968 1029.35 46.6542C1023.04 51.2479 1014.8 56.3529 1009.58 60.5926C1006.17 63.3513 1007.33 63.298 1006.09 64.7898C1004.87 66.2627 1002.66 67.664 1000.67 68.7095C998.785 69.7003 997.117 70.3711 996.7 70.5253C996.679 70.5338 999.657 68.1851 997.818 69.0996C996.463 69.2094 996.731 70.4997 996.7 70.5253C996.162 70.7406 989.86 75.0069 988.647 75.9397C987.993 76.4618 988.728 76.7211 988.38 76.9825C981.288 82.3509 972.937 87.204 963.867 89.8416C962.596 90.2217 961.332 90.5995 960.056 90.9798C959.885 91.0232 959.918 90.276 959.517 90.3868C953.886 91.9316 950.643 93.9972 946.287 96.1182C941.936 98.2448 938.285 99.4405 935.173 99.33C931.805 100.761 926.683 102.135 923.721 102.896C920.758 103.658 920.828 105.078 920.585 105.197C913.008 108.881 908.136 109.817 899.64 112.239C898.31 112.611 896.544 113.124 894.614 113.661C890.625 114.78 885.967 115.882 882.981 116.547C879.463 117.332 877.28 117.372 874.053 118.079C873.616 118.174 874.153 118.704 874.022 118.748C870.479 120.012 872.018 118.281 871.229 118.13C868.37 117.562 866.643 117.293 862.046 118.284C860.99 118.512 858.083 120.971 856.112 121.281C853.863 121.632 854.292 121.012 852.601 121.146C852.371 121.164 852.103 121.195 851.787 121.243C851.559 121.276 851.645 121.746 849.975 121.853C842.218 122.389 833.445 122.213 825.35 121.657C824.246 121.583 825.615 122.432 824.005 122.333C820.211 122.093 816.281 121.709 812.409 121.22C808.668 120.747 804.929 120.205 801.441 119.595C799.701 119.288 800.863 118.905 800.503 118.704C798.297 117.48 794.821 118.402 794.273 118.354C781.153 117.209 771.47 114.663 757.896 112.099C757.693 112.059 757.055 112.028 756.23 111.962C754.153 111.807 750.681 111.402 749.158 110.029C749.011 109.901 746.955 107.988 744.572 108.183C744.423 108.194 745.74 109.29 743.127 108.42C740.519 107.551 736.128 106.563 732.812 104.533C731.757 103.892 729.591 101.699 725.906 101.244C725.681 101.245 719.637 101.111 718.538 98.8054C718.359 98.4234 719.378 97.0714 715.199 95.9908C714.399 95.7814 715.541 96.7707 713.535 96.0341C710.448 94.898 706.828 92.4903 702.973 91.2306C702.314 91.0229 699.148 90.5831 697.515 88.6541C697.26 88.353 698.151 88.2114 697.095 87.5386C695.957 86.8133 694.864 86.1457 693.687 85.4449C689.656 83.0409 685.481 80.7288 681.661 78.0859C679.927 76.8857 681.31 76.653 679.559 75.3173C677.8 73.9763 674.131 71.4994 671.95 70.68C669.765 69.8592 671.173 72.3908 668.165 70.7307C659.719 66.0762 651.609 61.0319 643.417 56.2579C638.896 53.6274 634.365 51.0312 629.772 48.6109C627.837 47.597 629.212 48.8783 626.351 47.4395C619.617 44.0776 609.577 39.5039 601.036 37.0018C595.888 35.4838 591.135 34.2056 587.651 33.1022C579.868 30.718 590.022 31.9416 583.975 30.4556C581.032 29.7528 577.578 30.9702 576.869 30.9311C569.864 30.553 565.084 29.4614 558.799 29.5771C557.506 29.6102 558.765 30.3065 557.67 30.331C553.935 30.4263 550.007 30.2712 546.465 30.6231C544.878 30.7867 545.22 31.2803 543.765 31.3888C542.242 31.5107 540.796 31.6285 539.364 31.7341C537.712 31.8435 536.035 31.9965 534.205 32.1886C533.902 32.2223 535.689 31.0809 533.276 31.6934C529.373 32.7089 524.288 34.1361 519.925 36.5944C518.633 37.3263 519.07 38.4273 515.824 39.0002C515.142 39.126 515.323 37.4535 512.437 40.1643C511.955 40.6101 506.916 44.8433 503.587 45.2112C502.711 45.3082 500.288 45.144 498.686 46.0795C498.469 46.2108 499.654 46.375 498.281 47.0709C497.724 47.3509 497.162 47.6281 496.59 47.9048C492.639 49.8262 488.586 52.0598 484.703 54.674C483.533 55.4659 485.668 54.9172 483.916 56.0832C479.114 59.2915 472.754 63.4175 467.37 66.3819C465.387 67.4703 466.451 66.1981 466.279 66.2315C466.026 66.2778 465.789 66.3357 465.569 66.403C463.542 66.9788 463.03 68.5818 462.438 69.0275C458.367 72.0952 454.62 73.7999 450.468 76.4752C449.324 77.2093 450.472 77.2531 450.268 77.44C448.115 79.3486 449.345 77.3163 447.751 78.1069C443.251 80.3274 438.376 83.0114 433.939 85.3469C432.314 86.202 434.493 85.9163 433.014 86.6822C431.752 87.3357 430.479 87.9802 429.174 88.6258C421.671 92.3345 413.901 95.8135 406.413 98.8077C404.762 99.465 405.552 98.4972 405.162 98.5322C402.474 98.7602 399.554 101.383 398.811 101.835C395.442 103.892 393.848 104.043 390.707 105.489C383.457 108.817 375.289 112.261 366.867 115.304C357.483 118.662 347.496 121.741 337.959 122.225C334.441 122.424 331.093 122.294 327.992 122.06C311.54 120.688 297.182 119.779 280.037 115.172C278.758 114.808 279.839 115.901 278.727 115.588C275.688 114.718 272.682 113.68 269.741 112.471C259.519 108.233 249.762 103.758 239.613 99.7183C238.563 99.2981 239.799 100.577 238.099 99.9233C234.611 98.586 230.26 96.7632 226.842 95.153C225.18 94.3712 227.69 94.7228 226.01 93.9472C223.884 92.9666 221.65 92.0098 219.383 91.1075C217.474 90.3477 215.536 89.6237 213.623 88.954C211.843 88.3337 214.246 90.0131 211.954 89.1561C196.318 83.3545 180.766 78.0561 165.011 72.0763C163.92 71.6655 163.401 69.9629 160.969 69.5079C160.674 69.8429 160.543 70.3034 160.34 70.6958C159.775 70.5285 159.203 70.3594 158.649 70.1965C147.116 66.8487 136.319 63.4219 125.398 63.0773C113.708 62.5715 102.023 62.3097 90.489 63.0345C89.4887 63.1004 91.2641 63.7542 89.3388 63.8888C81.5303 64.4662 73.9861 65.5412 66.8718 67.3201C63.5859 68.1589 60.3161 68.9912 57.0656 69.8603C55.9838 70.1624 56.0563 68.652 53.044 70.0013C52.4918 70.2162 48.0685 72.2718 47.1475 73.1137C47.0231 73.2272 48.058 73.4184 46.7329 74.1069C40.7496 77.2138 35.9189 81.256 32.2952 86.7802C31.0474 88.6713 29.7884 90.5475 28.537 92.39C27.6522 93.6903 27.9602 91.9099 27.3243 92.8342C22.8138 99.4024 18.7058 107.009 14.3981 113.178C11.5342 117.314 11.4506 115.111 9.13841 116.889C8.79718 117.152 7.34325 119.85 6.67658 119.709C4.97043 119.334 4.02867 117.1 2.13332 116.85C1.70535 116.752 0.125846 121.143 0.43833 118.235C0.448706 118.019 1.65462 114.953 1.75546 114.127C1.81891 113.546 0.750101 114.084 1.03287 112.971C1.32481 111.846 2.41821 111.055 3.03373 109.31C3.64934 107.569 2.57054 107.861 4.32817 104.687ZM910.323 106.212C907.436 106.511 907.802 108.912 910.526 107.377C910.658 107.299 910.471 106.195 910.323 106.212ZM1218.08 22.3083C1215.16 19.8918 1212.22 20.3285 1214.27 22.0928C1216.34 23.8656 1218.96 23.0446 1218.08 22.3083ZM1253.01 37.2369C1249.47 34.6816 1247.44 37.4846 1251.88 38.782C1252.14 38.8592 1253.21 37.3866 1253.01 37.2369ZM15.1156 105.941C15.0658 105.96 13.8782 107.882 13.878 107.946C13.9126 109.367 16.2865 105.523 15.1156 105.941ZM1287.5 52.5169C1286.5 51.5328 1282.78 50.3556 1284.04 51.5853C1285.07 52.5796 1288.76 53.7443 1287.5 52.5169ZM764.936 107.343C764.895 107.3 763.32 106.932 763.303 107.133C763.281 107.795 765.536 108.082 764.936 107.343ZM1345.37 80.1676C1336.89 75.9493 1332.92 70.9328 1342.09 75.6878C1343.75 76.5485 1338.07 74.749 1340.1 76.0073C1343.82 78.3058 1347.19 77.9718 1350.79 80.7465C1351.44 81.2503 1345.85 80.413 1345.36 80.1638C1345.36 80.1651 1345.37 80.1663 1345.37 80.1676ZM907.856 104.019C907.796 104.008 905.649 104.697 905.608 104.741C904.688 105.85 909.019 104.464 907.856 104.019ZM679.386 67.7356C679.316 67.6139 674.864 64.8723 674.686 64.8392C671.711 64.5052 680.7 70.0439 679.386 67.7356ZM1038.9 31.0904C1040.45 29.0317 1042.83 27.2503 1044.99 26.9236C1042.95 28.2754 1040.93 29.6927 1038.9 31.0904Z" fill="white"/>
</svg>
